<svg xmlns="http://www.w3.org/2000/svg" width="82.77" height="70.39"><style>.st2{fill:#308a8e}.st4{fill:#6a7872}.st7{fill:#aed1d5}.st0{fill:#37919b}</style><path class="st0" d="M11.33 58.79v6.6c0 .51.58.93 1.15.93h39.47c.76 0 1.24-.42 1.24-.93v-6.6zm38.75-33.21H14.52c-1.76 0-3.19 1.43-3.19 3.19v24.97c0 1.76 1.43 3.19 3.19 3.19h35.56c1.77 0 3.19-1.43 3.19-3.19V28.77c0-1.76-1.42-3.19-3.19-3.19"/><path d="M53.41 53.22l-38.89-.01c-1.76 0-3.19.31-3.19.69v6.6l38.37-.13 3.52-.2z" fill="#2c8484"/><path class="st2" d="M1.52 51.36l10.39 2.43 3.24-5.1s3.38-3.48 1.67-7.2c-1.72-3.71-5.44-3.86-5.44-3.86L1.9 44.26z"/><path d="M53.41 53.21v-4.52H15.15l-3.24 5.1z" fill="#30898e"/><path class="st0" d="M12 48.55c0-3.27-2.69-5.93-6-5.93-3.32 0-6 2.66-6 5.93 0 2.55 1.63 4.71 3.91 5.55v14.61c0 2.24 8.09 2.24 8.09 0V48.98c0-.05-.01-.1-.01-.15 0-.09.01-.19.01-.28"/><path class="st2" d="M63.17 51.36l-10.38 2.43-3.24-5.1s-3.39-3.48-1.67-7.2c1.71-3.71 5.43-3.86 5.43-3.86l9.48 6.63z"/><path class="st0" d="M52.69 48.55c0-3.27 2.69-5.93 6-5.93 3.32 0 6.01 2.66 6.01 5.93 0 2.55-1.63 4.71-3.92 5.55v14.61c0 2.24-8.09 2.24-8.09 0V48.98c0-.05.02-.1.02-.15-.01-.09-.02-.19-.02-.28"/><path class="st4" d="M82.59 68.84l-8.44-4.52a.597.597 0 00-.48-.24.592.592 0 00-.49.23l-8.87 4.57c-.15.19-.18.45-.08.66.1.22.32.36.56.36h17.36c.34 0 .62-.28.62-.63 0-.17-.07-.32-.18-.43"/><path class="st4" d="M73.78 67.65c-.63 0-1.15-.51-1.15-1.14V16.67c.01-.15.43-5.89-3.19-9.8-2.31-2.51-5.81-3.78-10.39-3.78-.63 0-1.14-.51-1.14-1.14 0-.64.51-1.15 1.14-1.15 5.26 0 9.32 1.53 12.09 4.54 4.29 4.67 3.8 11.15 3.78 11.43v49.74c0 .63-.51 1.14-1.14 1.14"/><path class="st4" d="M73.78 47.62c-1.1 0-1.99.89-1.99 1.98v15.88c.02.26 4 .31 3.96-.17l.01-15.71c0-1.09-.89-1.98-1.98-1.98"/><path d="M74.83 67.25c0 .59-.48 1.07-1.08 1.07-.59 0-1.07-.48-1.07-1.07a1.076 1.076 0 112.15 0" fill="#9dc3c5"/><path d="M74.46 67.25c0 .39-.32.7-.71.7-.39 0-.7-.31-.7-.7 0-.4.31-.71.7-.71.39 0 .71.31.71.71" fill="#8fb5b6"/><path class="st7" d="M57.36 15.75l1.66-13.69a.668.668 0 00-.18-.52.646.646 0 00-.51-.18L44.31 2.95a.619.619 0 00-.37 1.06L56.3 16.19v.01c.25.24.64.24.88-.01a.62.62 0 00.18-.44"/><path class="st7" d="M56.63 2c0-1.11.89-2 2-2a2 2 0 11-2 2"/></svg>