<svg xmlns="http://www.w3.org/2000/svg" width="74.99" height="68.97"><style>.st2{fill:#63bd6e}.st4{fill:#616161}.st3{fill:#117f4a}</style><path d="M74.4 59.89c0 4.3-1.01 4.21-5.51 4.21H8.15C3.65 64.1 0 60.62 0 56.32V19.8c0-4.3 3.65-7.79 8.15-7.79h60.3c4.51 0 5.95 1.55 5.95 5.84z" fill="#525252"/><path d="M72.81 58.59c0 4.3-1.23 4.22-5.55 4.22H9.39c-4.31 0-7.81-3.49-7.81-7.78V21.8c0-4.3 3.5-7.79 7.81-7.79h58.38c4.31 0 5.04 1.98 5.04 6.27z" fill="#444545"/><path class="st2" d="M69.94 18.06l-51.23-6.84-2.95 22.17 51.22 6.83z"/><path class="st3" d="M68.42 19.41l-48.6-6.48-2.55 19.1 48.61 6.48zm-2.17 19.68l-49.49-6.6 2.69-20.14 49.48 6.6z"/><path class="st3" d="M51.59 26.89c.64-4.83-2.75-9.27-7.58-9.91-4.83-.65-9.26 2.75-9.9 7.58-.65 4.82 2.74 9.26 7.57 9.9 4.83.65 9.27-2.74 9.91-7.57"/><path class="st2" d="M42.7 30.45c.48-.01.89-.2 1.25-.58.36-.37.58-.87.66-1.48.08-.52.02-.96-.15-1.3-.17-.34-.56-.68-1.17-1.02zm.62-10.02c-.47.02-.86.2-1.18.53-.32.33-.51.74-.58 1.23-.06.49 0 .91.18 1.27.18.37.53.68 1.05.95zM41.65 33l.19-1.44c-.59-.17-1.05-.39-1.39-.68-.34-.28-.62-.7-.82-1.24-.2-.55-.28-1.2-.23-1.96l1.24-.1c-.01.77.08 1.36.26 1.76.27.56.64.89 1.1 1.01l.61-4.57c-.48-.17-.95-.47-1.42-.89-.35-.3-.59-.69-.74-1.17-.14-.47-.17-1-.1-1.58.14-1.02.55-1.81 1.23-2.36.47-.37 1.1-.55 1.9-.54l.09-.69.71.09-.09.69c.68.18 1.2.5 1.55.95.45.59.67 1.36.66 2.28l-1.26.05c0-.57-.09-1.03-.27-1.35-.18-.33-.47-.57-.84-.72l-.56 4.14c.58.26.96.45 1.15.59.34.24.61.52.8.84.2.31.33.67.41 1.07.07.41.08.83.02 1.28-.13 1-.51 1.8-1.12 2.39-.61.59-1.34.86-2.18.79l-.2 1.45z"/><path class="st2" d="M56.08 0L9.02 21.36l9.25 20.36 47.05-21.36z"/><path class="st3" d="M55.52 1.95L10.86 22.22l7.97 17.55L63.49 19.5zm8.58 17.84L18.64 40.43l-8.39-18.5L55.7 1.29z"/><path class="st3" d="M45.21 17.21c-2.02-4.43-7.25-6.4-11.68-4.38-4.44 2.01-6.4 7.24-4.39 11.67 2.02 4.44 7.25 6.4 11.68 4.39 4.44-2.01 6.4-7.24 4.39-11.68"/><path class="st2" d="M39.56 24.94c.4-.25.65-.63.75-1.15.1-.51.03-1.04-.23-1.61-.21-.48-.48-.82-.81-1.01-.33-.21-.84-.29-1.54-.25zm-4.79-8.82c-.39.27-.63.63-.72 1.07-.1.45-.04.9.16 1.35.21.45.48.78.83.99.35.21.81.29 1.39.25zm5.24 11.54l-.6-1.32c-.58.17-1.1.23-1.53.17-.44-.06-.9-.27-1.36-.63-.46-.35-.87-.87-1.23-1.54l.99-.74c.41.67.79 1.12 1.16 1.36.52.33 1.01.42 1.47.28L37 21.04c-.49.1-1.05.1-1.67 0-.46-.07-.87-.28-1.25-.61-.37-.33-.68-.76-.92-1.28-.43-.95-.5-1.83-.21-2.66.2-.56.64-1.05 1.32-1.47l-.28-.63.65-.29.28.63c.67-.21 1.28-.21 1.82-.02.7.27 1.29.79 1.77 1.59l-1.04.71c-.31-.49-.62-.83-.95-1.01-.33-.18-.69-.24-1.09-.16l1.73 3.81c.62-.09 1.04-.13 1.27-.11.42.02.8.12 1.13.28.34.16.64.4.92.7.27.3.51.65.69 1.07.42.92.52 1.79.32 2.62-.21.83-.69 1.44-1.43 1.82l.6 1.34z"/><path class="st4" d="M71 63.46c0 4.29-1.71 5.51-6 5.51H4.37c-4.3 0-4.37-.41-4.37-4.7V20.23s.04-1.05.1-1.71c.11-1.48 1.19-2.94 1.19-2.94s.65 2.71 2.49 3.46c2.87 1.18 5.11 1.08 5.11 1.08H65c4.29 0 6 .57 6 4.86z"/><path d="M5.13 23.07h-4c-.55 0-1-.45-1-1 0-.56.45-1 1-1h4c.55 0 1 .45 1 1s-.45 1-1 1m16.11.01l-8.05-.01c-.56 0-1-.45-1-1s.44-1 1-1l8.05.01c.56 0 1 .44 1 1 0 .55-.44 1-1 1m16.12 0H29.3c-.55 0-1-.45-1-1s.45-1 1-1h8.06c.55 0 1 .45 1 1-.01.56-.45 1-1 1m16.11.01h-8.06c-.55 0-1-.45-1-1 0-.56.45-1 1-1h8.06c.55 0 1 .45 1 1s-.45 1-1 1m15.11 2.34c-.43 0-.82-.27-.95-.69-.29-.9-.78-1.64-3.87-1.64l-2.24-.01c-.55 0-1-.44-1-1 0-.55.45-1 1-1l2.24.01c2.5 0 4.93.36 5.77 3.03a.999.999 0 01-.65 1.26c-.1.03-.2.04-.3.04m.31 16.09c-.56 0-1-.45-1-1v-8.06c0-.55.44-1 1-1 .55 0 1 .45 1 1v8.06c0 .55-.45 1-1 1m0 16.11c-.56 0-1-.45-1-1v-8.06c0-.55.44-1 1-1 .55 0 1 .45 1 1v8.06c0 .55-.45 1-1 1M21.28 67.77h-8.06c-.55 0-1-.45-1-1s.45-1 1-1h8.06c.56 0 1 .45 1 1s-.44 1-1 1m16.12 0h-8.06c-.55 0-1-.45-1-1s.45-1 1-1h8.06c.55 0 1 .45 1 1s-.45 1-1 1m16.11 0h-8.06c-.55 0-1-.45-1-1s.45-1 1-1h8.06c.55 0 1 .45 1 1s-.45 1-1 1m10.03 0h-1.98c-.55 0-1-.45-1-1s.45-1 1-1h1.98c3.33 0 3.88-.29 4.17-1.36.14-.53.69-.85 1.22-.71.54.15.86.69.71 1.23-.76 2.84-3.35 2.84-6.1 2.84m-58.41 0h-4c-.55 0-1-.45-1-1s.45-1 1-1h4c.55 0 1 .45 1 1s-.45 1-1 1" fill="#717171"/><path class="st4" d="M67.15 61.56c0 3.64-1.28 3.92-5.01 3.92H.1V23.25l62.24.03c3.74 0 4.81 1.03 4.81 4.68z"/><path d="M74.53 46.22H55.08c-1.26 0-3.61-2.25-3.61-6.8s2.35-6.68 3.61-6.68h19.45c.65 0 .58 13.48 0 13.48" fill="#727172"/><path d="M74.53 47.3H55.08c-1.26 0-3.61-2.25-3.61-6.8s2.35-6.68 3.61-6.68h19.45c.65 0 .58 13.48 0 13.48" fill="#575656"/><path d="M60.13 40.6c0 1.64-1.13 2.97-2.54 2.97-1.4 0-2.53-1.33-2.53-2.97 0-1.64 1.13-2.97 2.53-2.97 1.41 0 2.54 1.33 2.54 2.97" fill="#d6cb78"/><path d="M59.64 40.6c0 1.32-.91 2.4-2.05 2.4-1.13 0-2.04-1.08-2.04-2.4 0-1.32.91-2.4 2.04-2.4 1.14 0 2.05 1.08 2.05 2.4" fill="#ece17e"/></svg>